<svg width="67" height="48" viewBox="0 0 67 48" fill="none" xmlns="http://www.w3.org/2000/svg">
<path d="M44.7634 13.3212L22.9525 0.112865C22.8315 0.0390506 22.6924 0 22.5507 0C22.409 0 22.27 0.0390506 22.1489 0.112865L0.352072 13.3212C0.240223 13.3922 0.148916 13.4912 0.0872366 13.6084C0.0255572 13.7257 -0.00434378 13.857 0.000509279 13.9894V46.2518C0.000509279 46.6833 0.30549 47.0516 0.736935 47.0516H5.38801C5.59541 47.0467 5.7924 46.9598 5.93578 46.8099C6.07917 46.6599 6.15723 46.4592 6.15285 46.2518V24.1024H38.9654V46.2518C38.961 46.4592 39.039 46.6599 39.1824 46.8099C39.3258 46.9598 39.5228 47.0467 39.7302 47.0516H44.3813C44.8127 47.0516 45.1177 46.6833 45.1177 46.2518V13.9896C45.1221 13.857 45.0917 13.7255 45.0295 13.6082C44.9674 13.491 44.8756 13.392 44.7634 13.3212ZM6.15285 22.5399V19.4149H38.9654V22.5399H6.15285ZM43.5552 45.4891H40.5279V18.6408C40.5244 18.4312 40.439 18.2312 40.2899 18.0838C40.1408 17.9365 39.9398 17.8534 39.7302 17.8524H5.38801C5.17836 17.8534 4.97743 17.9365 4.82831 18.0838C4.6792 18.2312 4.59377 18.4312 4.59035 18.6408V45.4891H1.56301V14.4301L22.5591 1.69441L43.5552 14.4301V45.4891Z" fill="#D7984E"/>
<path d="M34.6946 32.881L32.6299 27.2934C32.4434 26.7904 32.1085 26.3561 31.6695 26.0478C31.2306 25.7396 30.7083 25.572 30.172 25.5674H15.3141C14.7777 25.5721 14.2555 25.7397 13.8165 26.0479C13.3775 26.3561 13.0426 26.7905 12.8561 27.2934L10.8201 32.7957L10.018 33.5523C9.63092 33.8857 9.32069 34.2989 9.10861 34.7636C8.89654 35.2283 8.78765 35.7334 8.78945 36.2442V46.252C8.78549 46.4596 8.86395 46.6603 9.00764 46.8102C9.15133 46.9601 9.34856 47.0469 9.55615 47.0518H14.7695C14.8719 47.0492 14.9727 47.0264 15.0663 46.9848C15.1598 46.9432 15.2442 46.8835 15.3147 46.8092C15.3851 46.7349 15.4402 46.6475 15.4767 46.5518C15.5133 46.4562 15.5306 46.3543 15.5277 46.252V43.4385H29.5902V46.252C29.5873 46.3543 29.6047 46.4562 29.6412 46.5518C29.6778 46.6475 29.7329 46.7349 29.8033 46.8092C29.8737 46.8835 29.9582 46.9432 30.0517 46.9848C30.1452 47.0264 30.2461 47.0492 30.3484 47.0518H35.5618C35.7694 47.0469 35.9666 46.9601 36.1103 46.8102C36.254 46.6603 36.3325 46.4596 36.3285 46.252V36.0335C36.329 35.5563 36.2333 35.0839 36.0471 34.6446C35.8608 34.2052 35.5879 33.808 35.2445 33.4766L34.6946 32.881ZM14.3212 27.8525C14.3953 27.6465 14.5296 27.4676 14.7066 27.3387C14.8836 27.2099 15.0952 27.1371 15.3141 27.1299H30.172C30.3908 27.1371 30.6024 27.2099 30.7794 27.3387C30.9564 27.4676 31.0907 27.6465 31.1648 27.8525L32.8752 32.501H12.6107L14.3212 27.8525ZM13.9652 45.4893H10.3519V43.4385H13.9652V45.4893ZM31.1527 45.4893V43.4385H34.766V45.4893H31.1527ZM34.766 41.876H10.3519V36.2442C10.3504 35.9576 10.4114 35.674 10.5308 35.4134C10.6502 35.1528 10.8251 34.9214 11.0433 34.7354C11.0522 34.7277 11.0574 34.7364 11.0661 34.7283L11.7953 34.0635H33.6303L34.1265 34.5771C34.1374 34.589 34.1415 34.5921 34.1532 34.6031C34.3475 34.7871 34.5021 35.009 34.6075 35.2549C34.7129 35.5009 34.7669 35.7659 34.766 36.0335V41.876Z" fill="#D7984E"/>
<path d="M14.2082 35.9189H13.7576C13.1489 35.9189 12.5652 36.1607 12.1348 36.5911C11.7044 37.0215 11.4626 37.6052 11.4626 38.2139C11.4626 38.8225 11.7044 39.4062 12.1348 39.8366C12.5652 40.267 13.1489 40.5088 13.7576 40.5088H14.2082C14.8168 40.5088 15.4005 40.267 15.8309 39.8366C16.2613 39.4062 16.5031 38.8225 16.5031 38.2139C16.5031 37.6052 16.2613 37.0215 15.8309 36.5911C15.4005 36.1607 14.8168 35.9189 14.2082 35.9189ZM14.2082 38.9463H13.7576C13.5633 38.9463 13.377 38.8691 13.2397 38.7318C13.1023 38.5944 13.0251 38.4081 13.0251 38.2139C13.0251 38.0196 13.1023 37.8333 13.2397 37.696C13.377 37.5586 13.5633 37.4814 13.7576 37.4814H14.2082C14.4024 37.4814 14.5887 37.5586 14.7261 37.696C14.8634 37.8333 14.9406 38.0196 14.9406 38.2139C14.9406 38.4081 14.8634 38.5944 14.7261 38.7318C14.5887 38.8691 14.4024 38.9463 14.2082 38.9463Z" fill="#D7984E"/>
<path d="M31.3605 35.9189H30.9099C30.3013 35.9189 29.7175 36.1607 29.2872 36.5911C28.8568 37.0215 28.615 37.6052 28.615 38.2139C28.615 38.8225 28.8568 39.4062 29.2872 39.8366C29.7175 40.267 30.3013 40.5088 30.9099 40.5088H31.3605C31.9692 40.5088 32.5529 40.267 32.9833 39.8366C33.4136 39.4062 33.6554 38.8225 33.6554 38.2139C33.6554 37.6052 33.4136 37.0215 32.9833 36.5911C32.5529 36.1607 31.9692 35.9189 31.3605 35.9189ZM31.3605 38.9463H30.9099C30.7157 38.9463 30.5294 38.8691 30.392 38.7318C30.2547 38.5944 30.1775 38.4081 30.1775 38.2139C30.1775 38.0196 30.2547 37.8333 30.392 37.696C30.5294 37.5586 30.7157 37.4814 30.9099 37.4814H31.3605C31.5547 37.4814 31.741 37.5586 31.8784 37.696C32.0158 37.8333 32.0929 38.0196 32.0929 38.2139C32.0929 38.4081 32.0158 38.5944 31.8784 38.7318C31.741 38.8691 31.5547 38.9463 31.3605 38.9463Z" fill="#D7984E"/>
<path d="M27.2466 36.7979C27.2466 36.5907 27.1643 36.3919 27.0178 36.2454C26.8712 36.0989 26.6725 36.0166 26.4653 36.0166H18.5552C18.348 36.0166 18.1493 36.0989 18.0027 36.2454C17.8562 36.3919 17.7739 36.5907 17.7739 36.7979V39.7275C17.7739 39.9347 17.8562 40.1335 18.0027 40.28C18.1493 40.4265 18.348 40.5088 18.5552 40.5088H26.4653C26.6725 40.5088 26.8712 40.4265 27.0178 40.28C27.1643 40.1335 27.2466 39.9347 27.2466 39.7275V36.7979ZM25.7817 38.9463H19.3364V37.5791H25.7817V38.9463Z" fill="#D7984E"/>
<rect x="66" width="1" height="48" fill="#DDDDDD"/>
</svg>
