<svg width="69" height="50" viewBox="0 0 69 50" fill="none" xmlns="http://www.w3.org/2000/svg">
<g clip-path="url(#clip0_1_792)">
<path d="M24 12.6875C16.6595 12.6875 10.6875 18.6595 10.6875 26C10.6875 33.3405 16.6595 39.3125 24 39.3125C31.3405 39.3125 37.3125 33.3405 37.3125 26C37.3125 18.6595 31.3405 12.6875 24 12.6875ZM24 37.4375C17.6933 37.4375 12.5625 32.3067 12.5625 26C12.5625 19.6933 17.6933 14.5625 24 14.5625C30.3067 14.5625 35.4375 19.6933 35.4375 26C35.4375 32.3067 30.3067 37.4375 24 37.4375Z" fill="#D7984E"/>
<path d="M47.5023 2.1095C47.196 1.94694 46.8249 1.96653 46.5376 2.16059C41.9352 5.27038 39.1875 10.4431 39.1875 15.9977V28.162C39.1875 29.4667 39.6956 30.6933 40.6181 31.6159L42.375 33.3728V47.1875C42.375 48.7383 43.6367 50 45.1875 50C46.7383 50 48 48.7383 48 47.1875V2.9375C48 2.59072 47.8086 2.27225 47.5023 2.1095ZM46.125 47.1875C46.125 47.7044 45.7044 48.125 45.1875 48.125C44.6706 48.125 44.25 47.7044 44.25 47.1875V32.9844C44.25 32.7358 44.1512 32.4973 43.9754 32.3215L41.9439 30.29C41.3755 29.7216 41.0625 28.9659 41.0625 28.162V15.9977C41.0625 11.6871 42.9263 7.63578 46.125 4.84034V47.1875Z" fill="#D7984E"/>
<path d="M21.8492 18.565C21.6459 18.0888 21.0949 17.8677 20.6188 18.0708C17.4376 19.4289 15.382 22.5413 15.382 26C15.382 26.5177 15.8017 26.9375 16.3195 26.9375C16.8373 26.9375 17.257 26.5177 17.257 26C17.257 23.2935 18.8656 20.858 21.355 19.7954C21.8312 19.5921 22.0524 19.0412 21.8492 18.565Z" fill="#D7984E"/>
<path d="M24 17.3821L23.9527 17.3822C23.4349 17.3856 23.018 17.8082 23.0214 18.326C23.0249 18.8416 23.444 19.2572 23.9589 19.2572C23.9609 19.2572 23.9632 19.2572 23.9652 19.2572L24 19.2571C24.5178 19.2571 24.9375 18.8374 24.9375 18.3196C24.9375 17.8018 24.5178 17.3821 24 17.3821Z" fill="#D7984E"/>
<path d="M36.9959 13.6699C35.3395 11.9247 33.3871 10.5514 31.1929 9.58841C28.9207 8.59129 26.5007 8.08569 24 8.08569C21.1425 8.08569 18.411 8.73876 15.8814 10.0269C15.4201 10.2618 15.2364 10.8263 15.4714 11.2877C15.7064 11.749 16.2709 11.9325 16.7323 11.6977C18.9958 10.5451 21.441 9.96069 24 9.96069C28.4434 9.96069 32.5758 11.7363 35.6359 14.9607C35.8202 15.1549 36.0679 15.2528 36.316 15.2528C36.5478 15.2528 36.7799 15.1674 36.9612 14.9953C37.3368 14.6388 37.3522 14.0455 36.9959 13.6699Z" fill="#D7984E"/>
<path d="M37.906 35.7855C37.4998 35.4645 36.9103 35.5334 36.5892 35.9396C33.5243 39.8161 28.9357 42.0393 24 42.0393C20.9109 42.0393 17.9122 41.1596 15.3278 39.4951C14.8927 39.2147 14.3123 39.3404 14.032 39.7756C13.7517 40.211 13.8773 40.7911 14.3126 41.0714C17.2003 42.9313 20.5502 43.9142 24 43.9142C29.5125 43.9142 34.6372 41.4314 38.06 37.1023C38.3811 36.6963 38.3122 36.1067 37.906 35.7855Z" fill="#D7984E"/>
<path d="M12.7461 37.4304L12.7323 37.4145C12.7273 37.4084 12.7223 37.4023 12.7172 37.3963C12.3837 37.0001 11.7923 36.9494 11.3962 37.2828C11.0002 37.6164 10.9493 38.2077 11.2829 38.6039L11.292 38.6146L11.2925 38.6143C11.3024 38.6268 11.3127 38.6394 11.3234 38.6518C11.5088 38.8678 11.7712 38.9786 12.0352 38.9786C12.2513 38.9786 12.4686 38.9042 12.6454 38.7524C13.0382 38.4151 13.0833 37.8233 12.7461 37.4304Z" fill="#D7984E"/>
<path d="M11.625 2C11.1072 2 10.6875 2.41972 10.6875 2.9375V13.0625H8.99925C8.99934 13.0573 9 13.0522 9 13.0468V2.9375C9 2.41972 8.58028 2 8.0625 2C7.54472 2 7.125 2.41972 7.125 2.9375V13.0468C7.125 13.0521 7.12575 13.0573 7.12575 13.0625H5.43675C5.43684 13.0573 5.4375 13.0522 5.4375 13.0468V2.9375C5.4375 2.41972 5.01778 2 4.5 2C3.98222 2 3.5625 2.41972 3.5625 2.9375V13.0468C3.5625 13.0521 3.56325 13.0573 3.56325 13.0625H1.875V2.9375C1.875 2.41972 1.45528 2 0.9375 2C0.419719 2 0 2.41972 0 2.9375V14.375C0 16.6747 1.39538 18.7502 3.46875 19.6474V47.1875C3.46875 48.7383 4.73044 50 6.28125 50C7.83206 50 9.09375 48.7383 9.09375 47.1875V19.6474C11.1671 18.7502 12.5625 16.6747 12.5625 14.375V2.9375C12.5625 2.41972 12.1428 2 11.625 2ZM7.896 18.0894C7.49494 18.2052 7.21875 18.5725 7.21875 18.99V47.1875C7.21875 47.7044 6.79819 48.125 6.28125 48.125C5.76431 48.125 5.34375 47.7044 5.34375 47.1875V18.99C5.34375 18.5725 5.06766 18.2052 4.6665 18.0894C3.20559 17.6672 2.13703 16.4132 1.91737 14.9375H10.645C10.4255 16.4132 9.35691 17.6672 7.896 18.0894Z" fill="#D7984E"/>
</g>
<rect x="68" width="1" height="48" fill="#DDDDDD"/>
<defs>
<clipPath id="clip0_1_792">
<rect width="48" height="48" fill="white" transform="translate(0 2)"/>
</clipPath>
</defs>
</svg>
