<svg width="61" height="61" viewBox="0 0 61 61" fill="none" xmlns="http://www.w3.org/2000/svg">
<g clip-path="url(#clip0_1_926)">
<path d="M54.4737 46.874H50.7169V43.0543C51.0283 43.0951 51.342 43.1161 51.6561 43.1172C53.6489 43.1172 55.56 42.3256 56.969 40.9165C58.3781 39.5075 59.1697 37.5963 59.1697 35.6036C59.1697 33.6109 58.3781 31.6998 56.969 30.2907C55.56 28.8816 53.6489 28.09 51.6561 28.09C51.342 28.0911 51.0283 28.1121 50.7169 28.1529V20.6572L52.9888 22.2801C53.1481 22.3937 53.3389 22.4548 53.5345 22.4548C53.6108 22.4545 53.6867 22.4454 53.7609 22.4275C53.8928 22.3948 54.016 22.3339 54.122 22.2489C54.2281 22.164 54.3144 22.057 54.3751 21.9354L56.2535 18.1786C56.3544 17.9767 56.3791 17.7451 56.3232 17.5264C56.2673 17.3078 56.1346 17.1165 55.9492 16.9877L34.3476 1.96045C34.1902 1.85097 34.003 1.79229 33.8113 1.79229C33.6195 1.79229 33.4324 1.85097 33.275 1.96045L11.6733 16.9877C11.488 17.1165 11.3552 17.3078 11.2993 17.5264C11.2434 17.7451 11.2682 17.9767 11.369 18.1786L13.2474 21.9354C13.3081 22.0569 13.3944 22.1638 13.5003 22.2487C13.6063 22.3336 13.7293 22.3946 13.8611 22.4273C13.9929 22.4601 14.1302 22.4639 14.2636 22.4385C14.3969 22.4131 14.5232 22.359 14.6337 22.2801L16.9056 20.6581V39.3604H15.9664V38.4212C15.9664 38.1721 15.8675 37.9332 15.6913 37.7571C15.5152 37.581 15.2763 37.482 15.0272 37.482H1.8784C1.62931 37.482 1.39042 37.581 1.21429 37.7571C1.03815 37.9332 0.939201 38.1721 0.939201 38.4212V59.0837C0.939201 59.3328 1.03815 59.5716 1.21429 59.7478C1.39042 59.9239 1.62931 60.0229 1.8784 60.0229H9.39202C9.64111 60.0229 9.88 59.9239 10.0561 59.7478C10.2323 59.5716 10.3312 59.3328 10.3312 59.0837V58.1445H15.0272C15.2763 58.1445 15.5152 58.0455 15.6913 57.8694C15.8675 57.6932 15.9664 57.4544 15.9664 57.2053V56.2661H22.2591L27.6576 59.8651C27.8112 59.9675 27.9915 60.0224 28.1761 60.0229C28.2436 60.0227 28.311 60.0154 28.3771 60.0013L58.4315 53.4269C58.6408 53.381 58.828 53.265 58.9623 53.0981C59.0966 52.9312 59.1698 52.7235 59.1697 52.5093V51.57C59.1682 50.325 58.673 49.1315 57.7927 48.2511C56.9123 47.3708 55.7187 46.8755 54.4737 46.874ZM8.45282 58.1445H2.81761V39.3604H8.45282V58.1445ZM14.088 56.2661H10.3312V39.3604H14.088V56.2661ZM48.8385 46.874H42.2641V39.3604H45.1474C45.9905 40.8053 47.2885 41.9302 48.8385 42.5593V46.874ZM32.7782 46.874C32.6752 46.4549 32.4765 46.0652 32.1977 45.7357L27.2369 39.9531V29.9684H29.7445C31.0111 30.5864 32.4019 30.9076 33.8113 30.9076C35.2206 30.9076 36.6114 30.5864 37.878 29.9684H40.3857V31.8468H39.4465C39.1974 31.8469 38.9586 31.9458 38.7825 32.122L37.5681 33.3364L36.3537 32.122C36.1776 31.9458 35.9388 31.8469 35.6897 31.8468H32.8721C32.623 31.8469 32.3842 31.9458 32.2081 32.122L29.3905 34.9396C29.2143 35.1157 29.1153 35.3545 29.1153 35.6036V38.4212C29.1153 38.6703 29.2142 38.9092 29.3904 39.0853C29.5665 39.2615 29.8054 39.3604 30.0545 39.3604H40.3857V46.874H32.7782ZM33.8113 29.0292C32.3252 29.0292 30.8725 28.5885 29.6369 27.7629C28.4013 26.9373 27.4383 25.7639 26.8696 24.3909C26.3009 23.018 26.1521 21.5072 26.442 20.0497C26.7319 18.5922 27.4475 17.2534 28.4983 16.2027C29.5491 15.1519 30.8879 14.4363 32.3454 14.1463C33.8029 13.8564 35.3137 14.0052 36.6866 14.5739C38.0595 15.1426 39.233 16.1056 40.0586 17.3412C40.8842 18.5768 41.3249 20.0295 41.3249 21.5156C41.3227 23.5076 40.5303 25.4174 39.1217 26.826C37.7131 28.2346 35.8033 29.027 33.8113 29.0292ZM57.2913 35.6036C57.2917 36.8834 56.8564 38.1251 56.0571 39.1246C55.2578 40.1241 54.1421 40.8217 52.8936 41.1028C51.6451 41.3838 50.3381 41.2315 49.1876 40.6709C48.0372 40.1103 47.1118 39.1748 46.5638 38.0183C46.4878 37.8583 46.3681 37.723 46.2185 37.6282C46.069 37.5333 45.8956 37.4826 45.7185 37.482H30.9937V35.9924L33.2609 33.7252H35.3008L36.9041 35.3284C37.0802 35.5045 37.319 35.6034 37.5681 35.6034C37.8171 35.6034 38.056 35.5045 38.2321 35.3284L39.8353 33.7252H45.7147C45.8918 33.7246 46.0652 33.674 46.2148 33.5791C46.3643 33.4842 46.484 33.3489 46.56 33.1889C47.1069 32.0303 48.0322 31.0926 49.1835 30.5304C50.3348 29.9682 51.6432 29.8152 52.8932 30.0964C54.1431 30.3777 55.2599 31.0765 56.0595 32.0776C56.859 33.0787 57.2935 34.3224 57.2913 35.6036ZM14.4365 20.1124L13.4127 18.0659L33.8113 3.87549L54.2098 18.0659L53.1861 20.1124L34.357 6.66304C34.1977 6.54936 34.0069 6.48826 33.8113 6.48826C33.6156 6.48826 33.4248 6.54936 33.2656 6.66304L14.4365 20.1124ZM18.784 19.316L33.8113 8.58183L48.8385 19.316V28.6535C47.2892 29.2806 45.9914 30.4036 45.1484 31.8468H42.2641V29.0292C42.2641 28.7801 42.1651 28.5412 41.989 28.3651C41.8129 28.1889 41.574 28.09 41.3249 28.09H40.5069C41.8049 26.7704 42.6841 25.0967 43.034 23.2791C43.3839 21.4615 43.1889 19.581 42.4735 17.8739C41.7581 16.1667 40.5543 14.709 39.0131 13.6838C37.472 12.6586 35.6623 12.1117 33.8113 12.1117C31.9603 12.1117 30.1506 12.6586 28.6094 13.6838C27.0683 14.709 25.8644 16.1667 25.149 17.8739C24.4337 19.581 24.2387 21.4615 24.5886 23.2791C24.9385 25.0967 25.8177 26.7704 27.1157 28.09H26.2977C26.0486 28.09 25.8097 28.1889 25.6335 28.3651C25.4574 28.5412 25.3585 28.7801 25.3585 29.0292V39.3604H18.784V19.316ZM57.2913 51.7579L28.3639 58.0806L23.0612 54.5454C22.9069 54.443 22.726 54.3881 22.5408 54.3877H15.9664V41.2388H25.8656L30.7683 46.9576C30.9134 47.1283 30.9933 47.345 30.9937 47.569V48.7524C30.9937 49.0015 30.8947 49.2404 30.7186 49.4166C30.5424 49.5927 30.3036 49.6916 30.0545 49.6916H28.9537C28.7048 49.6907 28.4663 49.5918 28.2897 49.4165L24.1441 45.2708L22.816 46.5989L26.9617 50.7445C27.2226 51.0071 27.533 51.2152 27.8749 51.357C28.2169 51.4987 28.5836 51.5711 28.9537 51.57H30.0545C30.8017 51.57 31.5184 51.2732 32.0468 50.7448C32.5752 50.2164 32.8721 49.4997 32.8721 48.7524H54.4737C55.221 48.7524 55.9377 49.0493 56.4661 49.5777C56.9945 50.1061 57.2913 50.8228 57.2913 51.57V51.7579Z" fill="#D7984E"/>
<path d="M53.5345 37.482C54.5719 37.482 55.4129 36.641 55.4129 35.6036C55.4129 34.5662 54.5719 33.7252 53.5345 33.7252C52.4971 33.7252 51.6561 34.5662 51.6561 35.6036C51.6561 36.641 52.4971 37.482 53.5345 37.482Z" fill="#D7984E"/>
<path d="M34.7505 15.8804V14.9412H32.8721V15.8804C32.1248 15.8804 31.4081 16.1772 30.8797 16.7056C30.3513 17.234 30.0545 17.9507 30.0545 18.698V19.6372C30.0545 20.3844 30.3513 21.1011 30.8797 21.6295C31.4081 22.1579 32.1248 22.4548 32.8721 22.4548V25.2724C32.623 25.2724 32.3841 25.1734 32.208 24.9973C32.0318 24.8212 31.9329 24.5823 31.9329 24.3332V23.394H30.0545V24.3332C30.0545 25.0805 30.3513 25.7971 30.8797 26.3255C31.4081 26.8539 32.1248 27.1508 32.8721 27.1508V28.09H34.7505V27.1508C35.4978 27.1508 36.2144 26.8539 36.7428 26.3255C37.2712 25.7971 37.5681 25.0805 37.5681 24.3332V23.394C37.5681 22.6467 37.2712 21.93 36.7428 21.4016C36.2144 20.8732 35.4978 20.5764 34.7505 20.5764V17.7588C34.9996 17.7588 35.2385 17.8577 35.4146 18.0339C35.5907 18.21 35.6897 18.4489 35.6897 18.698V19.6372H37.5681V18.698C37.5681 17.9507 37.2712 17.234 36.7428 16.7056C36.2144 16.1772 35.4978 15.8804 34.7505 15.8804ZM35.6897 23.394V24.3332C35.6897 24.5823 35.5907 24.8212 35.4146 24.9973C35.2385 25.1734 34.9996 25.2724 34.7505 25.2724V22.4548C34.9996 22.4548 35.2385 22.5537 35.4146 22.7299C35.5907 22.906 35.6897 23.1449 35.6897 23.394ZM32.8721 20.5764C32.623 20.5764 32.3841 20.4774 32.208 20.3013C32.0318 20.1252 31.9329 19.8863 31.9329 19.6372V18.698C31.9329 18.4489 32.0318 18.21 32.208 18.0339C32.3841 17.8577 32.623 17.7588 32.8721 17.7588V20.5764Z" fill="#D7984E"/>
<path d="M18.509 3.00718L17.1808 4.33541L20.9377 8.09232L22.2659 6.76408L18.509 3.00718Z" fill="#D7984E"/>
<path d="M17.8448 9.30595H12.2096V11.1844H17.8448V9.30595Z" fill="#D7984E"/>
<path d="M49.114 3.00633L45.3571 6.76323L46.6853 8.09146L50.4422 4.33456L49.114 3.00633Z" fill="#D7984E"/>
<path d="M55.4129 9.30595H49.7777V11.1844H55.4129V9.30595Z" fill="#D7984E"/>
</g>
<defs>
<clipPath id="clip0_1_926">
<rect width="60.1089" height="60.1089" fill="white" transform="translate(0 0.853134)"/>
</clipPath>
</defs>
</svg>
