<svg width="70" height="48" viewBox="0 0 70 48" fill="none" xmlns="http://www.w3.org/2000/svg">
<path d="M45.7928 26.3123C46.01 26.1776 46.1891 25.9895 46.3129 25.7659C46.4367 25.5422 46.5012 25.2906 46.5 25.035V22.965C46.5026 22.6853 46.4266 22.4106 46.2808 22.1719C46.1349 21.9333 45.925 21.7403 45.675 21.615L40.1168 18.84L27.4643 11.8148C26.7933 11.4461 26.0405 11.2519 25.275 11.25C24.5296 11.2483 23.7954 11.4314 23.1381 11.783C22.4808 12.1345 21.9209 12.6436 21.5085 13.2645L15.2175 22.6965L3.34875 29.9498L4.131 31.23L16.1408 23.8905C16.2338 23.8332 16.3134 23.7565 16.374 23.6655L22.7573 14.0948C23.0331 13.68 23.4075 13.3401 23.8469 13.1055C24.2862 12.8708 24.7769 12.7487 25.275 12.75C25.7871 12.751 26.2909 12.8799 26.7405 13.125L39.4155 20.1683L45 22.965V25.0403L43.0875 24.0795C42.9912 24.0309 42.8855 24.0037 42.7777 23.9997C42.6699 23.9957 42.5625 24.015 42.4628 24.0563C42.3631 24.0976 42.2735 24.1599 42.2001 24.239C42.1267 24.3181 42.0713 24.412 42.0375 24.5145L41.5125 26.2395L41.3783 26.2358L41.4233 23.7908C41.4263 23.6422 41.3851 23.4961 41.305 23.371C41.2249 23.2459 41.1094 23.1474 40.9733 23.088L27.03 17.0663C26.5172 16.8547 25.9442 16.84 25.4213 17.0251C24.8983 17.2102 24.4621 17.582 24.1965 18.069L20.3415 25.1408C20.2814 25.251 20.25 25.3745 20.25 25.5V29.9685C20.2501 30.0878 20.2785 30.2053 20.3331 30.3114C20.3877 30.4174 20.4668 30.5089 20.5638 30.5783C20.6608 30.6477 20.7729 30.6929 20.8909 30.7102C21.0089 30.7276 21.1294 30.7165 21.2423 30.678L23.364 29.9543C23.4367 30.3141 23.5617 30.6613 23.7353 30.9848L24.825 32.9528C25.0158 33.2976 25.2732 33.6011 25.5822 33.8457C25.8912 34.0903 26.2456 34.2711 26.625 34.3778C27.0036 34.4872 27.4002 34.5203 27.7917 34.4752C28.1832 34.4302 28.5619 34.3078 28.9058 34.1153L34.806 30.8378C35.2366 30.5986 35.6159 30.277 35.9222 29.8913C36.2285 29.5055 36.4558 29.0632 36.5911 28.5896C36.7264 28.116 36.7671 27.6204 36.7109 27.1311C36.6546 26.6418 36.5025 26.1683 36.2633 25.7378L35.535 24.4268C35.0512 23.558 34.2425 22.9167 33.2864 22.6435C32.3302 22.3703 31.3048 22.4875 30.435 22.9695L25.1925 25.887C24.7608 26.1251 24.3806 26.4466 24.0742 26.8329C23.7678 27.2191 23.5412 27.6624 23.4075 28.137C23.385 28.212 23.3813 28.2938 23.3648 28.3718L21.75 28.9208V25.6913L25.512 18.7913C25.5999 18.6304 25.7434 18.507 25.9157 18.4442C26.0879 18.3814 26.2772 18.3835 26.448 18.45L39.9135 24.2663L39.8775 26.2073C39.8735 26.4029 39.9084 26.5973 39.9801 26.7794C40.0518 26.9614 40.1589 27.1274 40.2953 27.2678C40.5531 27.5451 40.9099 27.7098 41.2883 27.726L41.4278 27.7365C41.7509 27.7445 42.068 27.648 42.3318 27.4612C42.5956 27.2744 42.792 27.0075 42.8918 26.7L43.1918 25.8068L44.3333 26.3805C44.5622 26.4945 44.8164 26.548 45.0719 26.5361C45.3273 26.5242 45.5755 26.4471 45.7928 26.3123ZM28.8428 25.8263C28.8875 25.6699 28.9818 25.5323 29.1115 25.4342C29.2413 25.3362 29.3994 25.2829 29.562 25.2825C29.6961 25.2821 29.8278 25.3176 29.9435 25.3855C30.0592 25.4533 30.1546 25.5508 30.2198 25.668L30.5835 26.3235C30.68 26.4972 30.7036 26.7021 30.6492 26.8932C30.5948 27.0843 30.4668 27.246 30.2933 27.3428C30.1193 27.4391 29.9142 27.4624 29.7231 27.4075C29.5319 27.3527 29.3704 27.2242 29.274 27.0503L28.9103 26.3948C28.8619 26.3092 28.831 26.2149 28.8193 26.1173C28.8076 26.0198 28.8161 25.9208 28.8428 25.8263ZM30.6638 29.1045C30.6904 29.0097 30.7356 28.921 30.7967 28.8438C30.8579 28.7665 30.9338 28.7022 31.02 28.6545C31.1309 28.5923 31.2559 28.5595 31.383 28.5593C31.453 28.5597 31.5226 28.5695 31.59 28.5885C31.6849 28.6152 31.7736 28.6605 31.8508 28.7218C31.9281 28.7831 31.9924 28.8592 32.04 28.9455L32.4038 29.6025C32.4559 29.6888 32.4901 29.7848 32.5043 29.8846C32.5185 29.9844 32.5124 30.0861 32.4865 30.1835C32.4605 30.281 32.4151 30.3722 32.3531 30.4517C32.291 30.5312 32.2136 30.5974 32.1254 30.6462C32.0372 30.6951 31.9401 30.7257 31.8398 30.7362C31.7395 30.7467 31.6381 30.7369 31.5417 30.7073C31.4453 30.6777 31.3559 30.629 31.2787 30.564C31.2016 30.4991 31.1383 30.4192 31.0928 30.3293L30.7283 29.6745C30.6802 29.5885 30.6497 29.4939 30.6385 29.396C30.6273 29.2982 30.6364 29.1991 30.6638 29.1045ZM32.2538 24C32.6557 23.9995 33.0504 24.1064 33.3971 24.3097C33.7438 24.5131 34.0298 24.8054 34.2255 25.1565L34.953 26.4683C35.2427 26.9898 35.3135 27.6051 35.1496 28.1788C34.9858 28.7525 34.6007 29.2376 34.0793 29.5275L33.96 29.5935C33.9202 29.3407 33.8372 29.0967 33.7148 28.872L33.351 28.2158C33.0802 27.7306 32.6382 27.3639 32.1113 27.1875C32.2391 26.6477 32.1616 26.0796 31.8938 25.5938L31.53 24.9375C31.4033 24.7148 31.2392 24.5156 31.0448 24.3488L31.1655 24.282C31.4984 24.097 31.8729 23.9999 32.2538 24ZM24.8498 28.545C24.9299 28.2603 25.0659 27.9943 25.2498 27.7625C25.4336 27.5308 25.6617 27.3379 25.9208 27.195L27.351 26.4C27.3908 26.6528 27.4738 26.8968 27.5963 27.1215L27.96 27.7778C28.2317 28.2611 28.6741 28.6257 29.2005 28.8C29.0694 29.3428 29.1467 29.915 29.4173 30.4035L29.7818 31.0583C29.9076 31.2811 30.071 31.4806 30.2648 31.6478L28.179 32.8065C27.8314 32.9996 27.4213 33.0468 27.0389 32.9377C26.6565 32.8285 26.3331 32.572 26.1398 32.2245L25.05 30.2565C24.905 29.999 24.8127 29.7152 24.7783 29.4216C24.7439 29.1281 24.7682 28.8306 24.8498 28.5465V28.545Z" fill="white"/>
<path d="M5.25 16.5C5.25 17.0967 5.48705 17.669 5.90901 18.091C6.33097 18.5129 6.90326 18.75 7.5 18.75C8.40525 18.75 11.3903 17.559 12.2835 17.1945C12.4215 17.1382 12.5396 17.0421 12.6228 16.9184C12.7059 16.7947 12.7504 16.649 12.7504 16.5C12.7504 16.351 12.7059 16.2053 12.6228 16.0816C12.5396 15.9579 12.4215 15.8618 12.2835 15.8055C11.3903 15.441 8.40525 14.25 7.5 14.25C6.90326 14.25 6.33097 14.4871 5.90901 14.909C5.48705 15.331 5.25 15.9033 5.25 16.5ZM7.5 17.25C7.30109 17.25 7.11032 17.171 6.96967 17.0303C6.82902 16.8897 6.75 16.6989 6.75 16.5C6.75 16.3011 6.82902 16.1103 6.96967 15.9697C7.11032 15.829 7.30109 15.75 7.5 15.75C8.33197 15.9232 9.14581 16.1743 9.93075 16.5C9.14581 16.8257 8.33197 17.0768 7.5 17.25Z" fill="white"/>
<path d="M13.209 14.9416C13.3464 14.9996 13.498 15.0152 13.6444 14.9866C13.7908 14.958 13.9253 14.8863 14.0308 14.7809C14.1362 14.6754 14.2079 14.5409 14.2365 14.3945C14.2651 14.2481 14.2494 14.0965 14.1915 13.9591C13.8165 13.0704 12.549 10.1169 11.9092 9.47636C11.4871 9.05427 10.9147 8.81714 10.3177 8.81714C9.72081 8.81714 9.14833 9.05427 8.72624 9.47636C8.30415 9.89845 8.06702 10.4709 8.06702 11.0679C8.06702 11.6648 8.30415 12.2373 8.72624 12.6594C9.36674 13.2991 12.3202 14.5681 13.209 14.9416ZM9.78749 10.5384C9.92813 10.3978 10.1189 10.3188 10.3177 10.3188C10.5166 10.3188 10.7073 10.3978 10.848 10.5384C11.313 11.2498 11.7107 12.0031 12.036 12.7884C11.2508 12.4629 10.4976 12.0652 9.78599 11.6004C9.71624 11.5306 9.66094 11.4478 9.62326 11.3566C9.58558 11.2654 9.56626 11.1677 9.5664 11.069C9.56654 10.9704 9.58614 10.8727 9.62407 10.7817C9.66201 10.6906 9.71754 10.6079 9.78749 10.5384Z" fill="white"/>
<path d="M44.8185 18.8521L46.3035 18.6481C45.8815 15.5898 44.6467 12.7007 42.728 10.2821C40.8093 7.86346 38.2769 6.00384 35.3948 4.89713C32.5127 3.79043 29.3865 3.47717 26.3421 3.99001C23.2978 4.50284 20.4467 5.82301 18.0862 7.81284L19.05 8.95959C21.2053 7.14273 23.8085 5.9373 26.5883 5.46898C29.368 5.00067 32.2225 5.28661 34.8541 6.297C37.4857 7.3074 39.7981 9.00524 41.5502 11.2135C43.3023 13.4218 44.4299 16.0597 44.8155 18.8521H44.8185Z" fill="white"/>
<path d="M16.695 11.433C16.8555 11.222 17.0215 11.0157 17.193 10.8142L17.6775 10.242L16.5337 9.27222L16.0485 9.84447C15.861 10.0657 15.6787 10.2945 15.5025 10.5195L15.0472 11.1195L16.239 12.03L16.695 11.433Z" fill="white"/>
<path d="M37.371 33.6219L37.9395 33.0534C38.225 32.7801 38.6049 32.6276 39 32.6276C39.3951 32.6276 39.775 32.7801 40.0605 33.0534L40.629 33.6204C41.1916 34.1828 41.9545 34.4987 42.75 34.4987C43.5455 34.4987 44.3084 34.1828 44.871 33.6204L43.8105 32.5599C43.525 32.8331 43.1451 32.9856 42.75 32.9856C42.3549 32.9856 41.975 32.8331 41.6895 32.5599L41.121 31.9929C40.5492 31.4481 39.7897 31.1443 39 31.1443C38.2103 31.1443 37.4508 31.4481 36.879 31.9929L36.3105 32.5614C36.0249 32.8342 35.645 32.9865 35.25 32.9865C34.855 32.9865 34.4751 32.8342 34.1895 32.5614L33.129 33.6219C33.7008 34.1666 34.4603 34.4704 35.25 34.4704C36.0397 34.4704 36.7992 34.1666 37.371 33.6219Z" fill="white"/>
<path d="M7.371 33.6217L7.9395 33.0532C8.22496 32.7799 8.60486 32.6274 9 32.6274C9.39514 32.6274 9.77503 32.7799 10.0605 33.0532L10.629 33.6202C11.2008 34.1649 11.9603 34.4687 12.75 34.4687C13.5397 34.4687 14.2992 34.1649 14.871 33.6202L15.4395 33.0517C15.725 32.7784 16.1049 32.6259 16.5 32.6259C16.8951 32.6259 17.275 32.7784 17.5605 33.0517L18.129 33.6187C18.6916 34.1811 19.4545 34.497 20.25 34.497C21.0455 34.497 21.8084 34.1811 22.371 33.6187L22.9395 33.0509L21.879 31.9889L21.3105 32.5574C21.025 32.8306 20.6451 32.9831 20.25 32.9831C19.8549 32.9831 19.475 32.8306 19.1895 32.5574L18.621 31.9904C18.0492 31.4457 17.2897 31.1418 16.5 31.1418C15.7103 31.1418 14.9508 31.4457 14.379 31.9904L13.8105 32.5589C13.525 32.8321 13.1451 32.9846 12.75 32.9846C12.3549 32.9846 11.975 32.8321 11.6895 32.5589L11.121 31.9919C10.5492 31.4472 9.78973 31.1433 9 31.1433C8.21026 31.1433 7.4508 31.4472 6.879 31.9919L6.3105 32.5604C6.02486 32.8333 5.64503 32.9856 5.25 32.9856C4.85497 32.9856 4.47514 32.8333 4.1895 32.5604L3.129 33.6209C3.7007 34.1657 4.46011 34.4697 5.24985 34.4699C6.03958 34.47 6.7991 34.1663 7.371 33.6217Z" fill="white"/>
<path d="M43.8112 36.6967C43.5294 36.9772 43.148 37.1347 42.7504 37.1347C42.3527 37.1347 41.9713 36.9772 41.6895 36.6967L41.1217 36.129C40.8432 35.8504 40.5124 35.6294 40.1485 35.4786C39.7845 35.3278 39.3944 35.2502 39.0004 35.2502C38.6064 35.2502 38.2163 35.3278 37.8523 35.4786C37.4883 35.6294 37.1576 35.8504 36.879 36.129L36.3112 36.6967C36.0294 36.9772 35.648 37.1347 35.2504 37.1347C34.8527 37.1347 34.4713 36.9772 34.1895 36.6967L33.6217 36.129C33.3432 35.8504 33.0124 35.6294 32.6485 35.4786C32.2845 35.3278 31.8944 35.2502 31.5004 35.2502C31.1064 35.2502 30.7163 35.3278 30.3523 35.4786C29.9883 35.6294 29.6576 35.8504 29.379 36.129L28.8112 36.6967C28.5294 36.9772 28.148 37.1347 27.7504 37.1347C27.3527 37.1347 26.9713 36.9772 26.6895 36.6967L26.1217 36.129C25.8432 35.8504 25.5124 35.6294 25.1485 35.4786C24.7845 35.3278 24.3944 35.2502 24.0004 35.2502C23.6064 35.2502 23.2163 35.3278 22.8523 35.4786C22.4883 35.6294 22.1576 35.8504 21.879 36.129L21.3112 36.6967C21.0294 36.9772 20.648 37.1347 20.2504 37.1347C19.8527 37.1347 19.4713 36.9772 19.1895 36.6967L18.6217 36.129C18.3432 35.8504 18.0124 35.6294 17.6485 35.4786C17.2845 35.3278 16.8944 35.2502 16.5004 35.2502C16.1064 35.2502 15.7163 35.3278 15.3523 35.4786C14.9883 35.6294 14.6576 35.8504 14.379 36.129L13.8112 36.6967C13.5294 36.9772 13.148 37.1347 12.7504 37.1347C12.3527 37.1347 11.9713 36.9772 11.6895 36.6967L11.1217 36.129C10.5499 35.584 9.79029 35.2801 9.00037 35.2801C8.21046 35.2801 7.45084 35.584 6.879 36.129L6.31125 36.6967C6.02944 36.9772 5.648 37.1347 5.25037 37.1347C4.85275 37.1347 4.47131 36.9772 4.1895 36.6967L3.129 37.7572C3.40758 38.0358 3.7383 38.2568 4.10229 38.4076C4.46627 38.5584 4.85639 38.636 5.25037 38.636C5.64435 38.636 6.03447 38.5584 6.39846 38.4076C6.76245 38.2568 7.09317 38.0358 7.37175 37.7572L7.9395 37.1895C8.07879 37.0501 8.24418 36.9396 8.42621 36.8642C8.60824 36.7887 8.80334 36.7499 9.00037 36.7499C9.19741 36.7499 9.39251 36.7887 9.57454 36.8642C9.75657 36.9396 9.92195 37.0501 10.0612 37.1895L10.629 37.7572C10.9076 38.0358 11.2383 38.2568 11.6023 38.4076C11.9663 38.5584 12.3564 38.636 12.7504 38.636C13.1444 38.636 13.5345 38.5584 13.8985 38.4076C14.2624 38.2568 14.5932 38.0358 14.8717 37.7572L15.4395 37.1895C15.5788 37.0501 15.7442 36.9396 15.9262 36.8642C16.1082 36.7887 16.3033 36.7499 16.5004 36.7499C16.6974 36.7499 16.8925 36.7887 17.0745 36.8642C17.2566 36.9396 17.422 37.0501 17.5612 37.1895L18.129 37.7572C18.4076 38.0358 18.7383 38.2568 19.1023 38.4076C19.4663 38.5584 19.8564 38.636 20.2504 38.636C20.6444 38.636 21.0345 38.5584 21.3985 38.4076C21.7624 38.2568 22.0932 38.0358 22.3717 37.7572L22.9395 37.1895C23.0788 37.0501 23.2442 36.9396 23.4262 36.8642C23.6082 36.7887 23.8033 36.7499 24.0004 36.7499C24.1974 36.7499 24.3925 36.7887 24.5745 36.8642C24.7566 36.9396 24.922 37.0501 25.0612 37.1895L25.629 37.7572C25.9076 38.0358 26.2383 38.2568 26.6023 38.4076C26.9663 38.5584 27.3564 38.636 27.7504 38.636C28.1444 38.636 28.5345 38.5584 28.8985 38.4076C29.2624 38.2568 29.5932 38.0358 29.8717 37.7572L30.4395 37.1895C30.5788 37.0501 30.7442 36.9396 30.9262 36.8642C31.1082 36.7887 31.3033 36.7499 31.5004 36.7499C31.6974 36.7499 31.8925 36.7887 32.0745 36.8642C32.2566 36.9396 32.422 37.0501 32.5612 37.1895L33.129 37.7572C33.4076 38.0358 33.7383 38.2568 34.1023 38.4076C34.4663 38.5584 34.8564 38.636 35.2504 38.636C35.6444 38.636 36.0345 38.5584 36.3985 38.4076C36.7624 38.2568 37.0932 38.0358 37.3717 37.7572L37.9395 37.1895C38.2253 36.9166 38.6052 36.7643 39.0004 36.7643C39.3955 36.7643 39.7755 36.9166 40.0612 37.1895L40.629 37.7572C40.9076 38.0358 41.2383 38.2568 41.6023 38.4076C41.9663 38.5584 42.3564 38.636 42.7504 38.636C43.1444 38.636 43.5345 38.5584 43.8985 38.4076C44.2624 38.2568 44.5932 38.0358 44.8717 37.7572L43.8112 36.6967Z" fill="white"/>
<path d="M43.8104 40.4605C43.5249 40.7337 43.1451 40.8862 42.7499 40.8862C42.3548 40.8862 41.9749 40.7337 41.6894 40.4605L41.1209 39.8935C40.5491 39.3488 39.7896 39.0449 38.9999 39.0449C38.2102 39.0449 37.4507 39.3488 36.8789 39.8935L36.3104 40.462C36.0249 40.7352 35.6451 40.8877 35.2499 40.8877C34.8548 40.8877 34.4749 40.7352 34.1894 40.462L33.6209 39.895C33.0491 39.3503 32.2896 39.0464 31.4999 39.0464C30.7102 39.0464 29.9507 39.3503 29.3789 39.895L28.8104 40.4635C28.5249 40.7367 28.145 40.8892 27.7499 40.8892C27.3548 40.8892 26.9749 40.7367 26.6894 40.4635L26.1209 39.8965C25.5491 39.3518 24.7896 39.0479 23.9999 39.0479C23.2102 39.0479 22.4507 39.3518 21.8789 39.8965L21.3104 40.465C21.0249 40.7382 20.645 40.8907 20.2499 40.8907C19.8548 40.8907 19.4749 40.7382 19.1894 40.465L18.6209 39.898C18.0491 39.3533 17.2896 39.0494 16.4999 39.0494C15.7102 39.0494 14.9507 39.3533 14.3789 39.898L13.8104 40.4665C13.5249 40.7397 13.145 40.8922 12.7499 40.8922C12.3548 40.8922 11.9749 40.7397 11.6894 40.4665L11.1209 39.8995C10.5491 39.3548 9.78964 39.0509 8.99991 39.0509C8.21017 39.0509 7.45071 39.3548 6.87891 39.8995L6.31041 40.468C6.02477 40.7409 5.64494 40.8931 5.24991 40.8931C4.85487 40.8931 4.47504 40.7409 4.18941 40.468L3.12891 41.521C3.70071 42.0657 4.46017 42.3696 5.24991 42.3696C6.03964 42.3696 6.7991 42.0657 7.37091 41.521L7.93941 40.9525C8.22505 40.6796 8.60488 40.5273 8.99991 40.5273C9.39494 40.5273 9.77477 40.6796 10.0604 40.9525L10.6289 41.5195C11.2007 42.0642 11.9602 42.3681 12.7499 42.3681C13.5396 42.3681 14.2991 42.0642 14.8709 41.5195L15.4394 40.951C15.725 40.6781 16.1049 40.5258 16.4999 40.5258C16.8949 40.5258 17.2748 40.6781 17.5604 40.951L18.1289 41.518C18.7007 42.0627 19.4602 42.3666 20.2499 42.3666C21.0396 42.3666 21.7991 42.0627 22.3709 41.518L22.9394 40.9495C23.225 40.6766 23.6049 40.5243 23.9999 40.5243C24.3949 40.5243 24.7748 40.6766 25.0604 40.9495L25.6289 41.5165C26.2007 42.0612 26.9602 42.3651 27.7499 42.3651C28.5396 42.3651 29.2991 42.0612 29.8709 41.5165L30.4394 40.948C30.725 40.6751 31.1049 40.5228 31.4999 40.5228C31.8949 40.5228 32.2748 40.6751 32.5604 40.948L33.1289 41.515C33.7007 42.0597 34.4602 42.3636 35.2499 42.3636C36.0396 42.3636 36.7991 42.0597 37.3709 41.515L37.9394 40.9465C38.225 40.6736 38.6049 40.5214 38.9999 40.5214C39.3949 40.5214 39.7748 40.6736 40.0604 40.9465L40.6289 41.5135C41.1915 42.0759 41.9544 42.3919 42.7499 42.3919C43.5454 42.3919 44.3083 42.0759 44.8709 41.5135L43.8104 40.4605Z" fill="white"/>
<rect x="69" width="1" height="48" fill="#DDDDDD"/>
</svg>
