<svg width="67" height="48" viewBox="0 0 67 48" fill="none" xmlns="http://www.w3.org/2000/svg">
<path d="M34.4971 4.59235V21.8438C33.6935 21.8438 33.0628 22.4945 33.0624 23.2784L33.0597 29.7514H4.3139C2.7058 29.7514 1.4375 31.0475 1.4375 32.6278V39.8111C1.4375 41.3914 2.71115 42.6875 4.3139 42.6875H5.02985V44.8409C5.02833 45.2401 5.35227 45.564 5.75141 45.5625H10.7813C11.1782 45.5609 11.5015 45.2379 11.5 44.8409V42.6875H34.4972V44.8409C34.4957 45.2406 34.8205 45.5648 35.2202 45.5625H40.2486C40.6483 45.5648 40.9731 45.2406 40.9716 44.8409V42.6875H41.6875C43.2956 42.6875 44.5625 41.3914 44.5625 39.8111V32.6278C44.5625 31.0475 43.2959 29.7514 41.6875 29.7514H40.2486V23.2784C40.2486 22.4945 39.6133 21.8438 38.8125 21.8438L38.8111 4.59235C38.811 3.41022 37.8566 2.4375 36.6576 2.4375C35.4586 2.4375 34.4971 3.41022 34.4971 4.59235ZM36.6576 3.8764C37.0485 3.8764 37.3735 4.18173 37.3735 4.59235L37.3749 21.8438H35.9374L35.936 4.59235C35.936 4.18173 36.2666 3.8764 36.6576 3.8764ZM16.2139 10.5656C11.2868 10.5656 6.56442 12.5516 3.08269 16.0741C2.38177 16.7288 3.45966 17.7955 4.10606 17.082C7.32021 13.8302 11.672 12.0045 16.2139 12.0045C20.7563 12.0045 25.1132 13.8297 28.3274 17.082C28.9781 17.8003 30.0461 16.7236 29.3508 16.0741C25.869 12.551 21.1415 10.5656 16.2139 10.5656ZM16.2139 15.0872C12.4701 15.0872 8.88467 16.5916 6.23985 19.2678C5.49679 19.8998 6.65243 21.0014 7.25762 20.2757C9.63484 17.8703 12.8553 16.5191 16.2139 16.5191C19.5722 16.5191 22.7931 17.8707 25.1702 20.2757C25.8294 20.9713 26.8769 19.9358 26.195 19.2678C23.5503 16.5921 19.9574 15.0872 16.2139 15.0872ZM16.2139 19.6019C13.6541 19.6019 11.2048 20.6269 9.39703 22.4558C8.69913 23.0997 9.76162 24.1832 10.4148 23.4694C11.9549 21.9112 14.0393 21.0394 16.2139 21.0394C18.3888 21.0394 20.4785 21.9109 22.0187 23.4694C22.6857 24.1727 23.729 23.12 23.0421 22.4558C21.2342 20.6265 18.774 19.6019 16.2139 19.6019ZM34.4999 23.2812H38.811V29.7514H34.4971L34.4999 23.2812ZM16.2139 24.1165C14.8372 24.1165 13.5194 24.6682 12.5486 25.6509C11.8429 26.3331 12.8966 27.3766 13.5719 26.6644C14.2752 25.9526 15.2225 25.5554 16.2139 25.5554C17.2047 25.5554 18.1583 25.9533 18.8615 26.6644C19.537 27.3716 20.5841 26.3303 19.8807 25.6509C18.9099 24.6691 17.5898 24.1165 16.2139 24.1165ZM4.31382 31.1903H41.6874C42.4962 31.1903 43.1249 31.8302 43.1249 32.6278V39.8111C43.1249 40.6199 42.4764 41.2486 41.6874 41.2486H4.31382C3.51625 41.2486 2.87634 40.6199 2.87634 39.8111V32.6278C2.87634 31.8302 3.50503 31.1903 4.31382 31.1903ZM7.90337 32.6278C6.70418 32.6278 5.74992 33.5989 5.74992 34.7812C5.74992 35.9636 6.70513 36.9361 7.90337 36.9361C9.10161 36.9361 10.0638 35.9636 10.0638 34.7812C10.0638 33.5989 9.10256 32.6278 7.90337 32.6278ZM13.6604 32.6278C12.4503 32.6278 11.4999 33.5989 11.4999 34.7812C11.4999 35.9636 12.464 36.9361 13.6604 36.9361C14.8568 36.9361 15.8138 35.9636 15.8138 34.7812C15.8138 33.5989 14.8705 32.6278 13.6604 32.6278ZM19.409 32.6278C18.2068 32.6278 17.2485 33.5989 17.2485 34.7812C17.2485 35.9636 18.2126 36.9361 19.409 36.9361C20.6054 36.9361 21.5624 35.9636 21.5624 34.7812C21.5624 33.5989 20.6112 32.6278 19.409 32.6278ZM7.90337 34.0597C8.28638 34.0597 8.62632 34.3758 8.62632 34.7812C8.62632 35.1867 8.292 35.4972 7.90337 35.4972C7.51474 35.4972 7.18743 35.1867 7.18743 34.7812C7.18743 34.3758 7.52037 34.0597 7.90337 34.0597ZM13.6604 34.0597C14.046 34.0597 14.3763 34.3758 14.3763 34.7812C14.3763 35.1867 14.049 35.4972 13.6604 35.4972C13.2718 35.4972 12.9374 35.1867 12.9374 34.7812C12.9374 34.3758 13.2748 34.0597 13.6604 34.0597ZM19.409 34.0597C19.7867 34.0597 20.1249 34.3758 20.1249 34.7812C20.1249 35.1867 19.8004 35.4972 19.409 35.4972C19.0176 35.4972 18.686 35.1867 18.686 34.7812C18.686 34.3758 19.0313 34.0597 19.409 34.0597ZM23.7159 34.0597C22.7783 34.0597 22.7783 35.4972 23.7159 35.4972H30.1902C31.1278 35.4972 31.1278 34.0597 30.1902 34.0597H23.7159ZM33.4204 34.0597C32.4829 34.0597 32.4829 35.4972 33.4204 35.4972H35.2201C36.1576 35.4972 36.1576 34.0597 35.2201 34.0597H33.4204ZM6.46727 42.6875H10.0624V44.125H6.46727V42.6875ZM35.9374 42.6875H39.5312V44.125H35.9374V42.6875Z" fill="#D7984E"/>
<rect x="66" width="1" height="48" fill="#DDDDDD"/>
</svg>
